<svg id="Слой_1" data-name="Слой 1" xmlns="http://www.w3.org/2000/svg" viewBox="0 0 468.29 326.47"><defs><style>.cls-1{fill:#fff;}</style></defs><title>icon_3d</title><path d="M458.8,294.47c-.43,3.09-1.39,5.43-.95,7.47,6.42,30.18-8.65,43.78-35.22,53.16-30.79,10.87-60,26.32-90.21,38.87-5.86,2.43-14.29,2.87-20,.5q-60-24.83-119.18-51.74c-4.93-2.26-9.73-10.47-10.13-16.25-2.14-30.76-1.87-30.22-30.54-41.33-16.45-6.37-33.49-12.9-47.72-23-24.93-17.73-25.42-44.18,0-60.9,19.14-12.6,41.67-20.45,63.48-28.14,10.76-3.79,16.49-7.73,14.35-19.54-3.57-19.65,4.52-30.11,23.21-37.22,36.28-13.8,71.46-30.55,107.41-45.28,5.32-2.18,13.12-1.88,18.48.4,36.28,15.44,72,32.26,108.36,47.44,13.09,5.46,20.67,12.44,17.53,27.28-4,18.69,5.77,24.46,21.93,29.22,18.85,5.55,38,13.17,54.25,24.07,27.42,18.36,27.13,45.54-.29,64.27C518.64,273.89,500.9,279.9,484.12,287,476,290.43,467.23,292.05,458.8,294.47ZM328.48,382.84c33.07-14.36,64.53-27.78,95.79-41.65C450.33,329.63,450.5,328.83,445,298c-25.67,1.76-51.15,11.26-77,6.32-.22-2.29-.44-4.59-.65-6.88l78.77-11.65V141.26c-23,9.68-45,18.52-66.61,28.15-17.22,7.67-40.51,12.09-49.18,25.72s-3.3,37-2.64,56c.62,17.6-6.5,37,10.2,50.9C325.77,315.53,324.24,329.05,328.48,382.84ZM260.43,252l56,32.4c0-17.56-2.08-31.87.41-45.31,6.35-34.28-6.64-52.64-39.37-62.94-28.17-8.86-54.59-23.4-83.82-36.33,0,47.69-.13,92,.26,136.39,0,3.46,3.27,9.48,5.77,9.92,19.36,3.41,38.91,5.74,60.73,8.72ZM438.06,131.09c-38.8-17.27-73.6-33-108.69-48.07-4.41-1.89-11-1.63-15.5.26-28.58,12-56.86,24.85-85.27,37.32-7.5,3.3-15.12,6.32-24.68,10.29,35.18,16,67.32,30.83,99.72,45.07,6.84,3,16.08,7.34,21.77,5C362.11,165.82,398.14,149,438.06,131.09Zm20.4,150.25c27.85-5.32,52.71-12.45,73-30.41,14.47-12.82,14.69-26,.41-38.71-20.64-18.41-46.11-25.24-73.41-30.69ZM182,177c-26.64,12.67-50.36,21.78-71.72,34.83C94.8,221.23,94,236,105.64,247.33c20.93,20.43,48.11,26.93,76.32,34.25Zm11.77,120.4c2.33,15.57-8.19,32.16,14.18,40.59,30,11.32,59,25.58,88.48,38.34,5.89,2.54,12.24,4,19.2,6.22V319.44l-55.35,32.32V306.64Zm127.74,4.37-49.81-29.5V331.4Z" transform="translate(-85.95 -69.57)"/><path class="cls-1" d="M458.46,281.34V181.53c27.3,5.45,52.77,12.28,73.41,30.69,14.28,12.74,14.06,25.89-.41,38.71C511.17,268.89,486.31,276,458.46,281.34Z" transform="translate(-85.95 -69.57)"/><path class="cls-1" d="M182,177V281.58c-28.21-7.32-55.39-13.82-76.32-34.25C94,236,94.8,221.23,110.24,211.8,131.6,198.75,155.32,189.64,182,177Z" transform="translate(-85.95 -69.57)"/></svg>