<svg id="Слой_1" data-name="Слой 1" xmlns="http://www.w3.org/2000/svg" viewBox="0 0 413.19 358.83"><defs><style>.cls-1{fill:#fff;}</style></defs><title>icon_cam</title><path d="M150.57,419.73c-3.12-1-6.25-1.89-9.34-3-3.87-1.33-6.63-4.17-9.34-7.09-4.86-5.24-6.47-11.5-6.46-18.46q.06-70.32,0-140.62c0-4.32.41-8.59,2.45-12.41,5.18-9.66,13.3-15,24.31-15.77,1-.07,2.09-.06,3.14-.06q120.42,0,240.86,0c8.7,0,16.39,2.5,22.32,9a27.17,27.17,0,0,1,7.52,19q-.18,70.64,0,141.28c0,9-3.62,16-10.16,21.68a26.11,26.11,0,0,1-13.09,5.91c-.65.11-1.28.32-1.92.48ZM275.7,240.31H156c-1,0-1.95,0-2.91.06-4.58.41-7.78,3.09-8.57,7.21a16.35,16.35,0,0,0-.18,3.13v140.6c0,.75,0,1.5.05,2.24a8.54,8.54,0,0,0,6.3,7.6,20.32,20.32,0,0,0,4.85.6q120.2,0,240.39,0a16.78,16.78,0,0,0,2.46-.06c5.29-.82,8.89-3.87,8.79-9.45,0-.45,0-.9,0-1.35V251.23a20.06,20.06,0,0,0-.06-2.69c-.37-2.69-1.29-5.2-4-6.27-2.23-.88-4.63-1.87-7-1.87Q335.9,240.22,275.7,240.31Z" transform="translate(-125.43 -60.9)"/><path d="M348.48,204.43a75.79,75.79,0,0,1-34.64-9.33,77.74,77.74,0,0,1-21.13-17,70,70,0,0,1-9.82-15.1c-9.5-18.84-9.44-38.09-1.74-57.33a73.3,73.3,0,0,1,9.92-16.59,67.26,67.26,0,0,1,19.16-16.89A77.07,77.07,0,0,1,360.5,61.53a75.13,75.13,0,0,1,31.73,11.39A77.89,77.89,0,0,1,411.68,90.8c5.58,7.14,8.86,15.22,11.6,23.71a60.46,60.46,0,0,1,1,32.87c-2,8.29-4.94,16.42-9.9,23.54a76.25,76.25,0,0,1-20,20.19C381.23,199.91,366.67,204.4,348.48,204.43ZM350,78.78c-1.42.12-3.66.23-5.88.49-18.9,2.21-33.8,11.42-42.91,27.87-9.84,17.76-9.56,36.11,1.74,53.65A51.35,51.35,0,0,0,313.63,173a55.25,55.25,0,0,0,20.12,10.86c23.47,6.51,43.63.69,60.35-16.81a46.9,46.9,0,0,0,10.64-18.93c3.67-12,3.37-24-1.93-35.74a55.26,55.26,0,0,0-20.63-24.31C372.64,81.87,362.16,79,350,78.78Z" transform="translate(-125.43 -60.9)"/><path d="M519.61,378.07V264c-2.23,1-4.39,1.88-6.5,2.89q-18.74,9-37.46,18-8.56,4.11-17.17,8.13c-5.37,2.5-11.13.38-13.06-4.73a8.79,8.79,0,0,1,4.45-11.17c4.36-2.28,8.83-4.34,13.28-6.45,4.17-2,8.38-3.85,12.54-5.84,9.07-4.36,18.12-8.77,27.18-13.14,7-3.37,14-6.66,21-10.05a10.6,10.6,0,0,1,11.42.75,8.11,8.11,0,0,1,3.24,5.92,15,15,0,0,1,.06,2c0,47.16-.06,94.32.06,141.47,0,6.8-5.27,10.22-10.16,9.87a15.4,15.4,0,0,1-5.28-1.66c-12.58-6-25.12-12.07-37.68-18.1q-14.81-7.11-29.64-14.17c-2-1-4.11-1.78-6.06-2.84-4.47-2.45-6.12-7.21-4.15-11.64a9.09,9.09,0,0,1,11.67-4.71c2.78,1.07,5.44,2.44,8.13,3.73,9.2,4.42,18.38,8.9,27.59,13.31,8.46,4.05,17,8,25.45,12.05C518.79,377.82,519.13,377.9,519.61,378.07Z" transform="translate(-125.43 -60.9)"/><path d="M197.8,204.41a56.66,56.66,0,0,1-25.88-7.55,55.07,55.07,0,0,1-21-21.11c-8.8-15.66-8.81-31.7-1.56-47.65a50.48,50.48,0,0,1,20.19-22.45c15.86-9.55,32.69-11.52,50.32-5.55a56.5,56.5,0,0,1,20.6,12.65,53.65,53.65,0,0,1,10.22,13.72c8.3,15,8.14,30.5,1.47,45.83a51.91,51.91,0,0,1-19.83,22.77C222.67,201.34,212,204.51,197.8,204.41Zm4.13-89.7c-14.11.19-24.54,5.26-32.13,15.26-10.06,13.24-8.08,32.56,1.68,43.25,6.85,7.49,15,12,25,13,15.15,1.46,27.42-4.2,36-16.64,8.35-12.05,6.92-30.12-2.1-40.68C222.38,119.51,212.47,115.18,201.93,114.71Z" transform="translate(-125.43 -60.9)"/><path class="cls-1" d="M275.7,240.31q60.19,0,120.41.09c2.33,0,4.73,1,7,1.87,2.71,1.07,3.63,3.58,4,6.27a20.06,20.06,0,0,1,.06,2.69v139.7c0,.45,0,.9,0,1.35.1,5.58-3.5,8.63-8.79,9.45a16.78,16.78,0,0,1-2.46.06q-120.19,0-240.39,0a20.32,20.32,0,0,1-4.85-.6,8.54,8.54,0,0,1-6.3-7.6c-.07-.74-.05-1.49-.05-2.24V250.72a16.35,16.35,0,0,1,.18-3.13c.79-4.12,4-6.8,8.57-7.21,1-.09,1.94-.06,2.91-.06Z" transform="translate(-125.43 -60.9)"/></svg>