<svg xmlns="http://www.w3.org/2000/svg" viewBox="0 0 448.51 426.18"><title>icon_lk</title><path d="M553,389.48c-1.08,4.89-1.81,9.89-3.31,14.65-3.57,11.27-8.4,22.08-16.72,30.64-11.7,12-26.16,18.57-43.11,18.6q-126.32.21-252.64.27c-24,0-48.05.3-72.08,0-23.72-.25-41.08-11-51.6-32.54-11.89-24.32-11.41-49-2.4-73.9,8.17-22.57,22.45-40.88,40.33-56.55,10.85-9.52,26.19-20.05,35.44-24.59l13.9,14.7c-5.09,3-10.34,5.94-15.39,9.18-18.84,12.09-35.16,26.8-46.82,46.17-9.36,15.54-14.68,32.31-13.95,50.61a54.25,54.25,0,0,0,12.4,32.81A33,33,0,0,0,163.28,432q78,0,156.07-.13,85.13-.11,170.25-.32c14-.05,25.12-6.12,33.06-17.7,5.19-7.56,9-15.79,9.94-25,.92-8.51-.25-16.9-2.27-25.15-5.09-20.8-16.51-37.83-31.66-52.56-18.21-17.69-39.73-30.16-63.11-39.63-5.29-2.14-10.74-3.88-16.06-5.94a4,4,0,0,0-4.5.83,130.41,130.41,0,0,1-50.26,25.73c-69.53,18.46-140.32-19.07-163.38-86.62C175.27,129.09,222.81,46.22,301.89,30.31,374.47,15.7,445.31,61.94,460.26,134.65c8.43,41-.06,78.87-25.88,112.36-.36.48-.7,1-1.2,1.67,3.16,1.21,6.19,2.33,9.18,3.53,26.51,10.63,50.78,24.84,71.19,45.07,18.07,17.91,31.22,38.75,36.81,63.86,1.06,4.75,1.5,9.63,2.23,14.44.11.67.27,1.33.41,2ZM328.93,50c-61.88,0-112.28,50.29-112.34,112.1s50.27,112.34,111.83,112.39A112.41,112.41,0,0,0,440.86,162.26C440.87,100.51,390.52,50,328.93,50Z" transform="translate(-104.49 -27.62)"/></svg>
