<svg width="15" height="15" viewBox="0 0 15 15" fill="none" xmlns="http://www.w3.org/2000/svg">
<path d="M14.9519 5.65442C14.8367 5.28455 14.5238 5.0091 14.1548 4.95246L10.1679 4.34771L8.38508 0.575386C8.22049 0.225916 7.87326 0 7.50029 0C7.12693 0 6.77916 0.225813 6.61428 0.575181L4.8319 4.34771L0.844183 4.95256C0.47575 5.009 0.163028 5.28445 0.0474144 5.65462C-0.0675617 6.02503 0.0306741 6.43978 0.297538 6.71113L3.18228 9.64834L2.50196 13.7946C2.43821 14.1783 2.59216 14.5743 2.89405 14.8032C3.06348 14.9319 3.26432 15 3.47498 15C3.63461 15 3.79351 14.9591 3.93432 14.8819L7.50032 12.924L11.0661 14.8819C11.2068 14.9591 11.3655 15 11.525 15C11.7355 15 11.9362 14.9319 12.1057 14.8032C12.4075 14.5739 12.5616 14.1781 12.4983 13.795L11.8172 9.64831L14.7025 6.7112C14.9699 6.43903 15.0679 6.02406 14.9519 5.65442ZM14.4139 6.40212L11.4508 9.41843C11.4022 9.46806 11.3798 9.53947 11.3914 9.60951L12.091 13.8683C12.1277 14.0908 12.0382 14.3209 11.8626 14.4543C11.7643 14.529 11.6476 14.5686 11.525 14.5686C11.4322 14.5686 11.3401 14.5448 11.2585 14.5L7.59652 12.4892C7.56635 12.4727 7.53338 12.4645 7.50032 12.4645C7.46725 12.4645 7.43419 12.4727 7.40414 12.4892L3.74204 14.5C3.55236 14.604 3.30998 14.5857 3.13694 14.4542C2.96152 14.3212 2.87204 14.0912 2.90914 13.868L3.60797 9.60956C3.61944 9.53963 3.59724 9.46811 3.54856 9.41858L0.585897 6.40212C0.4307 6.24427 0.373592 6.00312 0.440333 5.78821C0.507588 5.57297 0.689746 5.41263 0.903914 5.37972L4.99888 4.75856C5.06614 4.74832 5.12442 4.70417 5.15447 4.64041L6.9849 0.76603C7.08078 0.562844 7.28306 0.431559 7.50032 0.431559C7.71698 0.431559 7.91865 0.562742 8.01441 0.766132L9.84545 4.64041C9.87562 4.70417 9.93369 4.7483 10.0011 4.75856L14.0951 5.37961C14.3099 5.41263 14.492 5.57284 14.5592 5.78842C14.6264 6.00305 14.5695 6.24396 14.4139 6.40212Z" fill="#848CCF"/>
</svg>
