<svg width="20" height="20" viewBox="0 0 20 20" fill="none" xmlns="http://www.w3.org/2000/svg">
<path d="M19.9359 7.53923C19.7822 7.04607 19.3651 6.6788 18.873 6.60328L13.5572 5.79695L11.1801 0.767182C10.9607 0.301221 10.4977 0 10.0004 0C9.50258 0 9.03888 0.301084 8.81905 0.766909L6.44253 5.79695L1.12558 6.60341C0.634333 6.67867 0.21737 7.04593 0.0632192 7.5395C-0.0900822 8.03338 0.0408988 8.58637 0.396717 8.94817L4.24304 12.8644L3.33595 18.3928C3.25095 18.9044 3.45621 19.4324 3.85873 19.7376C4.08464 19.9092 4.35242 20 4.63331 20C4.84615 20 5.05801 19.9455 5.24576 19.8425L10.0004 17.232L14.7548 19.8425C14.9424 19.9455 15.154 20 15.3667 20C15.6473 20 15.915 19.9093 16.1409 19.7376C16.5434 19.4319 16.7488 18.9041 16.6643 18.3934L15.7563 12.8644L19.6033 8.94827C19.9599 8.58538 20.0905 8.03208 19.9359 7.53923ZM19.2185 8.53616L15.2678 12.5579C15.2029 12.6241 15.1731 12.7193 15.1886 12.8127L16.1213 18.4911C16.1703 18.7877 16.0509 19.0945 15.8169 19.2724C15.6857 19.372 15.5301 19.4248 15.3667 19.4248C15.243 19.4248 15.1201 19.3931 15.0113 19.3333L10.1287 16.6523C10.0885 16.6303 10.0445 16.6194 10.0004 16.6194C9.95634 16.6194 9.91225 16.6303 9.87219 16.6523L4.98939 19.3333C4.73648 19.472 4.41331 19.4477 4.18259 19.2723C3.9487 19.0949 3.82938 18.7883 3.87886 18.4907L4.81063 12.8127C4.82592 12.7195 4.79631 12.6241 4.73141 12.5581L0.781196 8.53616C0.574267 8.32569 0.498123 8.00416 0.587111 7.71762C0.676784 7.43063 0.919661 7.21685 1.20522 7.17296L6.66518 6.34475C6.75485 6.3311 6.83257 6.27223 6.87263 6.18721L9.3132 1.02137C9.44104 0.750459 9.71075 0.575412 10.0004 0.575412C10.2893 0.575412 10.5582 0.750322 10.6859 1.02151L13.1273 6.18721C13.1675 6.27223 13.2449 6.33107 13.3348 6.34475L18.7934 7.17282C19.0798 7.21685 19.3227 7.43046 19.4122 7.71789C19.5019 8.00406 19.426 8.32528 19.2185 8.53616Z" fill="#BE5683"/>
</svg>
