<svg id="Слой_1" data-name="Слой 1" xmlns="http://www.w3.org/2000/svg" viewBox="0 0 257.18 237.36"><title>icon_size</title><path d="M382,365.41h-2.41q-67.17,0-134.33,0c-3.22,0-6.15-.63-7.72-3.67a11.34,11.34,0,0,1-1.11-5q-.09-69.42,0-138.86v-3c-.88.78-1.42,1.2-1.88,1.69-4.15,4.48-8.31,8.95-12.43,13.45-1,1.09-1.83,2.32-2.83,3.4a2.64,2.64,0,0,1-4.29,0q-7.38-7.72-14.71-15.49-5.94-6.28-11.83-12.61c-2.72-2.92-5.41-5.88-8.31-9,2.48-2.4,4.75-4.58,7-6.78,3.7-3.63,7.43-7.22,11-10.92,4.65-4.75,9.23-9.58,13.8-14.41,4.06-4.29,8.12-8.59,12.09-13,2.39-2.62,4.49-5.52,7-8,1.91-2,4.22-3.54,6.32-5.32,5.18-4.38,11.61-4.75,17.89-5.63,4.78-.67,9.57-1.29,14.33-2.08,2.87-.48,5.7-1.26,8.55-1.85,4.49-.94,7.54.61,9.75,4.77q2.76,5.22,5.69,10.35a19.1,19.1,0,0,0,2.26,3c2.8,3.15,5.79,6.18,9.51,8.14,2.74,1.45,5.91,1.24,9,.51,5.27-1.26,8.31-5.26,11.08-9.35,2.46-3.66,4.36-7.69,6.57-11.51,4-6.88,5.54-6.73,12.66-5.52,10.21,1.75,20.38,3.68,30.58,5.51a10.92,10.92,0,0,1,6.46,3.2c5.94,6.31,12,12.5,18,18.78,3.66,3.84,7.21,7.78,10.83,11.65,6.91,7.34,13.87,14.63,20.73,22,2,2.11,3.63,4.49,5.53,6.65.8.92.82,1.5,0,2.37q-5,5.1-9.94,10.31-10,10.53-19.9,21.1c-1.46,1.55-2.84,3.17-4.37,4.88l-19.95-21.72-.49.23Zm20.59-146.69c.84-1,1.47-1.89,2.2-2.65,5.61-5.89,11.22-11.77,16.89-17.6.9-.92.81-1.46,0-2.32-4.27-4.47-8.48-9-12.71-13.5-4.08-4.36-8.13-8.76-12.24-13.09-5.6-5.91-11.24-11.76-16.85-17.65-.64-.67-1.11-1.52-1.8-2.13-1.61-1.45-2.69-3.55-5.13-4-4.25-.8-8.47-1.79-12.72-2.55-5.61-1-11.24-1.88-16.86-2.81a2.49,2.49,0,0,0-3.09,1.43c-2.69,5.3-5.25,10.72-9.46,15.06-2.43,2.51-4.68,5.45-7.6,7.19a22.16,22.16,0,0,1-17.81,2.58,31.85,31.85,0,0,1-8.49-4.11,45.05,45.05,0,0,1-10.09-9.51c-2.82-3.38-4.88-7.41-7.11-11.25a2.51,2.51,0,0,0-2.93-1.43c-3.64.62-7.27,1.25-10.91,1.86-4.52.75-9.05,1.51-13.59,2.19-4.33.66-8.51,1.89-11.59,5.08-4.56,4.72-8.73,9.82-13.21,14.62-6.72,7.22-13.54,14.36-20.38,21.48-3.11,3.25-6.27,6.47-9.57,9.54-1.5,1.4-1.2,2.31,0,3.56,3.47,3.56,6.87,7.18,10.3,10.77.5.53.94,1.11,1.44,1.63,2.53,2.66,5.07,5.31,7.69,8.05L246,187.49a10.4,10.4,0,0,1,.4,1.59c.31,5.11.84,10.22.85,15.33q.09,73.48,0,147v2.52H371V352q0-76.62,0-153.25c0-1.55.33-2.51,1.87-3.06,1.7-.6,3.3-1.49,5-2a2.35,2.35,0,0,1,2,.45c1.58,1.54,3,3.25,4.5,4.87,3.4,3.63,6.82,7.25,10.21,10.89.36.38.6.87,1,1.26C397.75,213.56,400.08,216,402.57,218.72Z" transform="translate(-180.09 -128.07)"/><path d="M282.4,205.37h2.22c16.21,0,32.42,0,48.63,0,1.82,0,2.56-.43,2.38-2.34-.17-1.74-.08-3.51-.09-5.27,0-2.49,1.4-3.41,3.5-2.11,4.75,2.94,9.43,6,14.15,9,.91.57,1.88,1.05,2.76,1.67,1.69,1.2,1.73,2.6,0,3.69-3.32,2.13-6.7,4.14-10.05,6.23-2.2,1.37-4.34,2.84-6.56,4.17-2.41,1.44-3.73.69-3.77-2.05,0-1.75-.09-3.52,0-5.27.09-1.45-.45-1.83-1.85-1.82-9,.05-18.1,0-27.15,0-7.43,0-14.86.05-22.29,0-1.63,0-2.35.35-2.2,2.11a50.42,50.42,0,0,1,0,5.07c0,2.59-1.38,3.39-3.66,2-4-2.35-7.88-4.78-11.79-7.2-1.7-1.05-3.38-2.13-5-3.26s-1.48-2.69.17-3.74c3.79-2.39,7.63-4.69,11.43-7.07,1.69-1,3.27-2.27,5-3.28,2.66-1.58,3.88-.87,3.89,2.18l0,6.48A5.25,5.25,0,0,0,282.4,205.37Z" transform="translate(-180.09 -128.07)"/></svg>